<svg id="Слой_1" data-name="Слой 1" xmlns="http://www.w3.org/2000/svg" viewBox="0 0 757.82 111.74"><defs><style>.cls-1{fill:#333;}.cls-2{fill:#4d4d4d;}</style></defs><path class="cls-1" d="M29.51,26.37H9.79v12.8H32.93V47H-.48V-.52H32.86V7.42H9.79V18.76H29.51Z" transform="translate(0.51 1.17)"/><path class="cls-1" d="M104.05,15.88l9.34-16.4h11.82L110.69,23.07l14.89,24h-12l-9.58-16.66L94.46,47H82.51l14.9-24L82.89-.52H94.7Z" transform="translate(0.51 1.17)"/><path class="cls-1" d="M215.64,24.34A27.69,27.69,0,0,1,213,36.66a19,19,0,0,1-7.45,8.16,22.88,22.88,0,0,1-22.17,0,19.2,19.2,0,0,1-7.53-8.11,26.79,26.79,0,0,1-2.7-12.14V22.25a27.42,27.42,0,0,1,2.65-12.36,19.14,19.14,0,0,1,7.5-8.2,22.87,22.87,0,0,1,22.15,0,19.14,19.14,0,0,1,7.5,8.2,27.35,27.35,0,0,1,2.65,12.33Zm-10.41-2.16q0-7.47-2.8-11.36a10.2,10.2,0,0,0-16-.05Q183.62,14.61,183.6,22v2.32q0,7.29,2.8,11.3a10.12,10.12,0,0,0,16,.15q2.77-3.87,2.8-11.29Z" transform="translate(0.51 1.17)"/><path class="cls-1" d="M302.43,7.42H287.16V47H276.88V7.42H261.82V-.52h40.61Z" transform="translate(0.51 1.17)"/><path class="cls-1" d="M363.51,47H353.24V-.52h10.27Z" transform="translate(0.51 1.17)"/><path class="cls-1" d="M456.53,31.2a16.55,16.55,0,0,1-5.94,12.09q-5.35,4.41-14.12,4.41-9.59,0-15.08-6.16t-5.5-16.91v-2.9a27.53,27.53,0,0,1,2.53-12.09,18.46,18.46,0,0,1,7.24-8A21.07,21.07,0,0,1,436.6-1.17q8.64,0,13.9,4.41t6.1,12.38H446.33Q446,11,443.64,8.94t-7-2.07q-5.13,0-7.68,3.51T426.3,21.27v3.59q0,7.71,2.45,11.27c1.63,2.38,4.2,3.56,7.72,3.56q4.75,0,7.1-2.07c1.57-1.38,2.46-3.52,2.69-6.42Z" transform="translate(0.51 1.17)"/><path class="cls-1" d="M570.85,37.24h-18L549.42,47H538.5L557.06-.52h9.52L585.23,47H574.31Zm-15.23-7.93h12.46L561.82,11.5Z" transform="translate(0.51 1.17)"/><path class="cls-1" d="M652.45,29.63h-8.18V47H634V-.52h18.52q8.84,0,13.62,3.76t4.8,10.62A14.13,14.13,0,0,1,668.73,22a14.91,14.91,0,0,1-6.7,5.18l10.79,19.44V47h-11Zm-8.18-7.94h8.28a8.74,8.74,0,0,0,6-1.87,6.55,6.55,0,0,0,2.12-5.18,7,7,0,0,0-2-5.29q-2-1.93-6.14-1.93h-8.25Z" transform="translate(0.51 1.17)"/><path class="cls-1" d="M755.76,7.42H740.49V47H730.22V7.42H715.16V-.52h40.6Z" transform="translate(0.51 1.17)"/><path class="cls-2" d="M13.91,89.29H2.6v7H8.43a8.59,8.59,0,0,1,5.74,1.89,6.36,6.36,0,0,1,2.06,5,6.5,6.5,0,0,1-2.08,5.06,8.43,8.43,0,0,1-5.67,2h-9V86.76H13.91ZM2.6,98.86v8.84H8.25a5,5,0,0,0,3.59-1.23,4.37,4.37,0,0,0,1.28-3.29A4.09,4.09,0,0,0,11.89,100a5.13,5.13,0,0,0-3.51-1.18Z" transform="translate(0.51 1.17)"/><path class="cls-2" d="M30.1,101v9.19H27V86.76h8.65a8.72,8.72,0,0,1,6,2,6.67,6.67,0,0,1,2.18,5.2,6.59,6.59,0,0,1-2.14,5.27A9.07,9.07,0,0,1,35.63,101Zm0-2.53h5.56a5.56,5.56,0,0,0,3.8-1.17A4.29,4.29,0,0,0,40.79,94a4.44,4.44,0,0,0-1.33-3.36,5.19,5.19,0,0,0-3.62-1.31H30.1Z" transform="translate(0.51 1.17)"/><path class="cls-2" d="M65.16,104.09H55.33l-2.21,6.14H49.93l9-23.47H61.6l9,23.47H67.4Zm-8.89-2.53h8l-4-11Z" transform="translate(0.51 1.17)"/><path class="cls-2" d="M92.38,93.05a3.62,3.62,0,0,0-1.37-3A5.87,5.87,0,0,0,87.19,89a5.28,5.28,0,0,0-3.46,1.14,3.5,3.5,0,0,0-1.39,2.82h-3.1a5.72,5.72,0,0,1,1-3.35,6.67,6.67,0,0,1,2.86-2.31,9.79,9.79,0,0,1,4.06-.83A9.52,9.52,0,0,1,93.3,88.2a6,6,0,0,1,2.17,4.91,4.81,4.81,0,0,1-1,3,6.59,6.59,0,0,1-2.79,2.11c2.77.92,4.15,2.76,4.15,5.5a6,6,0,0,1-2.36,5,9.84,9.84,0,0,1-6.28,1.86,10.6,10.6,0,0,1-4.25-.83,6.83,6.83,0,0,1-3-2.36,6.23,6.23,0,0,1-1.07-3.64H82a3.84,3.84,0,0,0,1.47,3.07A5.56,5.56,0,0,0,87.19,108a6.34,6.34,0,0,0,4-1.18,3.73,3.73,0,0,0,1.51-3.11q0-4.12-5.11-4.2h-2.9V97h2.89a5.63,5.63,0,0,0,3.56-1.07A3.58,3.58,0,0,0,92.38,93.05Z" transform="translate(0.51 1.17)"/><path class="cls-2" d="M121.32,86.76h3.09v23.47h-3.09V92.14l-11.56,18.09h-3.11V86.76h3.11v18.08Z" transform="translate(0.51 1.17)"/><path class="cls-2" d="M154.67,86.76v23.47h-3.1V89.29h-8.41l-.42,9.31a31.17,31.17,0,0,1-1,7,6.8,6.8,0,0,1-2.1,3.46,5.88,5.88,0,0,1-3.71,1.14h-1V107.7l.64,0a3.38,3.38,0,0,0,2.31-1,5.88,5.88,0,0,0,1.22-2.75,37,37,0,0,0,.6-5.8l.48-11.38Z" transform="translate(0.51 1.17)"/><path class="cls-2" d="M169.88,96.33h5.83a8.59,8.59,0,0,1,5.74,1.89,6.36,6.36,0,0,1,2.06,5,6.5,6.5,0,0,1-2.08,5.06,8.43,8.43,0,0,1-5.67,2h-9V86.76h3.1Zm0,2.53v8.84h5.65a5,5,0,0,0,3.59-1.23,4.37,4.37,0,0,0,1.28-3.29,4.09,4.09,0,0,0-1.23-3.14,5.13,5.13,0,0,0-3.51-1.18Z" transform="translate(0.51 1.17)"/><path class="cls-2" d="M211.45,102.78a8.66,8.66,0,0,1-2.75,5.75,9,9,0,0,1-6.15,2,8.25,8.25,0,0,1-6.66-3,12,12,0,0,1-2.51-8V97.33a13.33,13.33,0,0,1,1.17-5.75,8.77,8.77,0,0,1,3.31-3.81,9.21,9.21,0,0,1,5-1.33,8.43,8.43,0,0,1,6,2.09,8.7,8.7,0,0,1,2.63,5.77h-3.11a6.74,6.74,0,0,0-1.75-4.07A5.29,5.29,0,0,0,202.83,89a5.53,5.53,0,0,0-4.65,2.19,10.13,10.13,0,0,0-1.69,6.25v2.27a10.38,10.38,0,0,0,1.6,6.08,5.14,5.14,0,0,0,4.46,2.26,6,6,0,0,0,4-1.17,6.49,6.49,0,0,0,1.83-4.07Z" transform="translate(0.51 1.17)"/><path class="cls-2" d="M228.37,99.69h-2.86v10.54h-3.09V86.76h3.09V97.11h2.42l8.2-10.35H240l-9,11.38,9.63,12.09h-3.79Z" transform="translate(0.51 1.17)"/><path class="cls-2" d="M267.63,99.25a14.4,14.4,0,0,1-1.16,6,8.88,8.88,0,0,1-3.28,3.93A9.07,9.07,0,0,1,250,105.3a13.9,13.9,0,0,1-1.22-5.84V97.77a14.25,14.25,0,0,1,1.18-6,8.71,8.71,0,0,1,8.25-5.35,9.06,9.06,0,0,1,5,1.36,8.7,8.7,0,0,1,3.31,4,14.47,14.47,0,0,1,1.16,6Zm-3.07-1.51a10.5,10.5,0,0,0-1.68-6.41,6,6,0,0,0-9.31,0,10.31,10.31,0,0,0-1.73,6.2v1.72a10.56,10.56,0,0,0,1.7,6.36,6,6,0,0,0,9.32.13,10.5,10.5,0,0,0,1.7-6.26Z" transform="translate(0.51 1.17)"/><path class="cls-2" d="M292.14,99.38H282v8.32h11.81v2.53h-14.9V86.76h14.74v2.53H282v7.56h10.17Z" transform="translate(0.51 1.17)"/><path class="cls-2" d="M325.1,99.69h-2.85v10.54h-3.09V86.76h3.09V97.11h2.42l8.2-10.35h3.85l-9,11.38,9.62,12.09h-3.79Z" transform="translate(0.51 1.17)"/><path class="cls-2" d="M359.78,104.09H350l-2.21,6.14h-3.19l9-23.47h2.71l9,23.47H362Zm-8.9-2.53h8l-4-11Z" transform="translate(0.51 1.17)"/><path class="cls-2" d="M378.05,101v9.19H375V86.76h8.66a8.67,8.67,0,0,1,6,2,7.41,7.41,0,0,1,.05,10.47,9.08,9.08,0,0,1-6.12,1.84Zm0-2.53h5.56a5.56,5.56,0,0,0,3.8-1.17A4.28,4.28,0,0,0,388.73,94a4.43,4.43,0,0,0-1.32-3.36,5.2,5.2,0,0,0-3.63-1.31h-5.73Z" transform="translate(0.51 1.17)"/><path class="cls-2" d="M420.41,110.23H417.3V99.38H405.47v10.85h-3.09V86.76h3.09V96.85H417.3V86.76h3.11Z" transform="translate(0.51 1.17)"/><path class="cls-2" d="M445.75,104.09h-9.83l-2.2,6.14h-3.2l9-23.47h2.7l9,23.47H448Zm-8.89-2.53h8l-4-11Z" transform="translate(0.51 1.17)"/><path class="cls-2" d="M460.93,110.23V86.76h7.67a8.94,8.94,0,0,1,5.75,1.58A5.69,5.69,0,0,1,476.27,93a4.77,4.77,0,0,1-.93,2.91,6,6,0,0,1-2.55,2,5.5,5.5,0,0,1,3,2,5.86,5.86,0,0,1,1.1,3.56,6.26,6.26,0,0,1-2,5,8.46,8.46,0,0,1-5.78,1.81ZM464,96.77h4.68a4.92,4.92,0,0,0,3.25-1A3.41,3.41,0,0,0,473.16,93,3.34,3.34,0,0,0,472,90.17a5.5,5.5,0,0,0-3.43-.88H464Zm0,2.48v8.45h5.11a5,5,0,0,0,3.41-1.12,4,4,0,0,0,1.25-3.09q0-4.24-4.61-4.24Z" transform="translate(0.51 1.17)"/><path class="cls-2" d="M501,104.09h-9.83L489,110.23h-3.19l9-23.47h2.7l9,23.47h-3.17Zm-8.9-2.53h8l-4-11Z" transform="translate(0.51 1.17)"/><path class="cls-2" d="M534.23,86.76v23.47h-3.09V89.29h-8.42l-.42,9.31a31.17,31.17,0,0,1-1,7,6.73,6.73,0,0,1-2.1,3.46,5.88,5.88,0,0,1-3.71,1.14h-1V107.7l.64,0a3.38,3.38,0,0,0,2.31-1,5.88,5.88,0,0,0,1.22-2.75,37,37,0,0,0,.6-5.8l.48-11.38Z" transform="translate(0.51 1.17)"/><path class="cls-2" d="M549.44,96.33h5.83A8.59,8.59,0,0,1,561,98.22a6.36,6.36,0,0,1,2.06,5,6.5,6.5,0,0,1-2.08,5.06,8.43,8.43,0,0,1-5.67,2h-9V86.76h3.1Zm0,2.53v8.84h5.65a5,5,0,0,0,3.59-1.23,4.37,4.37,0,0,0,1.28-3.29,4.09,4.09,0,0,0-1.23-3.14,5.13,5.13,0,0,0-3.51-1.18Z" transform="translate(0.51 1.17)"/><path class="cls-2" d="M591.78,110.23h-3.11V99.38H576.84v10.85h-3.09V86.76h3.09V96.85h11.83V86.76h3.11Z" transform="translate(0.51 1.17)"/><path class="cls-2" d="M621.93,99.25a14.56,14.56,0,0,1-1.16,6,8.84,8.84,0,0,1-3.29,3.93,9.07,9.07,0,0,1-13.21-3.9,14.05,14.05,0,0,1-1.21-5.84V97.77a14.4,14.4,0,0,1,1.17-6,9.26,9.26,0,0,1,13.23-4,8.76,8.76,0,0,1,3.31,4,14.63,14.63,0,0,1,1.16,6Zm-3.08-1.51a10.57,10.57,0,0,0-1.67-6.41,5.52,5.52,0,0,0-4.69-2.23,5.46,5.46,0,0,0-4.62,2.23,10.31,10.31,0,0,0-1.73,6.2v1.72a10.49,10.49,0,0,0,1.7,6.36,6,6,0,0,0,9.32.13,10.43,10.43,0,0,0,1.69-6.26Z" transform="translate(0.51 1.17)"/><path class="cls-2" d="M646.44,99.38H636.27v8.32h11.81v2.53H633.17V86.76h14.75v2.53H636.27v7.56h10.17Z" transform="translate(0.51 1.17)"/><path class="cls-2" d="M676.53,86.76V107.7h8.07V86.76h3.08V107.7h8V86.76h3.09v23.47H673.42V86.76Z" transform="translate(0.51 1.17)"/><path class="cls-2" d="M729,99.25a14.4,14.4,0,0,1-1.16,6,8.88,8.88,0,0,1-3.28,3.93,9.09,9.09,0,0,1-5,1.35,8.75,8.75,0,0,1-8.24-5.25,13.9,13.9,0,0,1-1.22-5.84V97.77a14.25,14.25,0,0,1,1.18-6,8.71,8.71,0,0,1,8.25-5.35,9.06,9.06,0,0,1,5,1.36,8.7,8.7,0,0,1,3.31,4,14.47,14.47,0,0,1,1.16,6Zm-3.08-1.51a10.51,10.51,0,0,0-1.67-6.41,5.52,5.52,0,0,0-4.69-2.23A5.46,5.46,0,0,0,715,91.33a10.31,10.31,0,0,0-1.73,6.2v1.72a10.56,10.56,0,0,0,1.7,6.36,6,6,0,0,0,9.32.13,10.43,10.43,0,0,0,1.69-6.26Z" transform="translate(0.51 1.17)"/><path class="cls-2" d="M748.31,100.38l5.4-13.62h3.6L749,106.31a9.94,9.94,0,0,1-1.57,2.65,4.8,4.8,0,0,1-1.7,1.19,6.18,6.18,0,0,1-2.44.42,5.35,5.35,0,0,1-1.63-.15l.1-2.45,1.47.07a2.67,2.67,0,0,0,2.51-1.63l.4-.84.62-1.44-8-17.37h3.47Z" transform="translate(0.51 1.17)"/></svg>